PathFileType	4	(X/Y/Z)	C:/Users/opensim2020/Desktop/walking_exp_matlab/subject03_walking08_straight_03.trc	
DataRate	CameraRate	NumFrames	NumMarkers	Units	OrigDataRate	OrigDataStartFrame	OrigNumFrames	
100.00	100.00	4	51	mm	100.00	2469	299	
Frame#	Time	LFHD			RFHD			LBHD			RBHD			C7			T10			CLAV			STRN			RBAK			LSHO			LUPA			LELB			LFRM			LWRA			LWRB			LFIN			RSHO			RUPA			RELB			RFRM			RWRA			RWRB			RFIN			LASI			RASI			LPSI			RPSI			LTHI			LKNE			LTIB			LANK			LHEE			LTOE			RTHI			RKNE			RTIB			RANK			RHEE			RTOE			*39			*40			*41			*42			*43			*44			*45			*46			*47			*48			*49			*50			
		X1	Y1	Z1	X2	Y2	Z2	X3	Y3	Z3	X4	Y4	Z4	X5	Y5	Z5	X6	Y6	Z6	X7	Y7	Z7	X8	Y8	Z8	X9	Y9	Z9	X10	Y10	Z10	X11	Y11	Z11	X12	Y12	Z12	X13	Y13	Z13	X14	Y14	Z14	X15	Y15	Z15	X16	Y16	Z16	X17	Y17	Z17	X18	Y18	Z18	X19	Y19	Z19	X20	Y20	Z20	X21	Y21	Z21	X22	Y22	Z22	X23	Y23	Z23	X24	Y24	Z24	X25	Y25	Z25	X26	Y26	Z26	X27	Y27	Z27	X28	Y28	Z28	X29	Y29	Z29	X30	Y30	Z30	X31	Y31	Z31	X32	Y32	Z32	X33	Y33	Z33	X34	Y34	Z34	X35	Y35	Z35	X36	Y36	Z36	X37	Y37	Z37	X38	Y38	Z38	X39	Y39	Z39	X40	Y40	Z40	X41	Y41	Z41	X42	Y42	Z42	X43	Y43	Z43	X44	Y44	Z44	X45	Y45	Z45	X46	Y46	Z46	X47	Y47	Z47	X48	Y48	Z48	X49	Y49	Z49	X50	Y50	Z50	X51	Y51	Z51	

38	0.370	-1088.82568	-708.54388	1625.43665	-956.97015	-729.71259	1633.30457	-1101.67834	-827.85840	1563.78210	-971.47571	-844.42218	1571.49182	-1036.02478	-853.31995	1417.72961	-1036.00427	-895.85559	1108.43152	-1025.00452	-732.69574	1338.83350	-1023.91925	-693.91394	1172.05005	-936.69861	-914.25311	1247.97913	-1183.99683	-762.77399	1373.03308	-1252.79150	-782.02509	1174.67688	-1263.10254	-786.52057	1051.16394	-1257.46826	-769.80273	921.70111	-1222.96570	-763.12671	802.87738	-1276.04028	-780.57135	808.70508	-1261.31641	-777.44153	723.92358	-869.24713	-781.79620	1366.63440	-795.79163	-771.38031	1143.99487	-781.69220	-751.61206	1032.93689	-775.01398	-735.91711	896.73004	-807.22046	-708.50781	798.62671	-761.33411	-736.96082	796.79443	-771.78955	-721.32874	722.26776	-1137.67126	-727.44757	938.20129	-902.76141	-754.28699	932.33160	-1107.24976	-893.16602	971.27222	-957.84698	-907.14777	972.40784	-1181.26135	-767.21997	640.08551	-1133.02490	-745.81537	463.94089	-1133.50452	-774.72278	271.27673	-1088.19336	-771.54602	63.42869	-1054.17151	-811.26788	29.01422	-1059.36536	-618.45770	30.03177	-857.02051	-816.01447	636.60089	-873.43976	-796.34601	456.90707	-868.27271	-939.95868	330.86227	-907.14758	-1100.39001	185.28441	-961.32733	-1149.98975	196.11215	-927.92383	-1045.80078	50.81071																																				 
39	0.380	-1089.41553	-701.17285	1625.68347	-957.70404	-722.66150	1633.69373	-1102.55688	-820.40955	1563.95593	-972.38940	-837.28943	1571.80945	-1037.04553	-846.01910	1418.16150	-1037.19360	-888.64301	1108.75903	-1025.49707	-725.70483	1339.14465	-1024.07263	-687.01733	1172.30188	-938.67004	-907.86884	1247.96887	-1184.58936	-755.01410	1372.90344	-1253.80920	-771.59448	1174.41797	-1264.60010	-774.33771	1051.06445	-1259.37231	-756.98590	921.44073	-1225.33411	-750.40601	802.58948	-1278.68079	-766.63306	808.63159	-1264.41907	-762.69403	723.96075	-869.74658	-775.89636	1366.51147	-796.49695	-765.89996	1143.73047	-782.44965	-746.30231	1032.60791	-775.54822	-730.97394	896.39160	-808.06653	-703.87842	798.19336	-762.19659	-732.25153	796.46106	-772.69647	-716.65472	721.94379	-1138.81287	-720.11749	938.72009	-903.61371	-747.05707	932.52386	-1108.02698	-886.03833	971.67102	-958.75391	-899.99377	972.30408	-1181.64563	-761.05334	640.36090	-1133.67969	-741.78253	464.02136	-1133.87024	-773.02094	271.33408	-1088.18945	-771.54333	63.53909	-1054.14722	-811.29651	29.07873	-1059.28296	-618.40417	29.91911	-857.79370	-805.04956	637.30243	-873.84204	-781.39966	458.03259	-869.03802	-924.71918	332.15479	-908.23572	-1085.21326	186.56613	-962.82629	-1134.95740	196.32480	-926.41138	-1028.47742	53.14666																																				 
40	0.390	-1090.01660	-693.84198	1625.92078	-958.37933	-715.58221	1634.09607	-1103.36853	-813.02576	1564.10522	-973.25830	-830.20056	1572.13232	-1037.97034	-838.88226	1418.62000	-1038.34656	-881.58838	1109.13818	-1025.94226	-718.80280	1339.39600	-1024.67871	-680.01154	1172.59753	-940.48615	-901.56427	1248.09192	-1185.24414	-747.43176	1372.93628	-1254.75281	-761.23932	1174.41064	-1265.98608	-762.32336	1050.99402	-1261.17981	-743.94135	921.62573	-1227.61804	-736.93927	803.02344	-1281.23206	-752.40625	808.73199	-1267.56274	-747.56659	724.23773	-870.23291	-769.91235	1366.50037	-797.12341	-760.64923	1143.62378	-783.19812	-741.13605	1032.42908	-776.70453	-725.91724	896.13501	-809.13922	-699.06763	797.97107	-763.12775	-727.36877	796.25427	-773.60577	-711.64130	721.86847	-1139.97815	-713.11987	939.19861	-904.53290	-739.82385	933.02631	-1108.75085	-878.98517	971.88794	-959.63214	-892.88324	972.45844	-1181.64465	-754.99054	640.54102	-1133.91333	-737.48175	464.38950	-1134.17981	-771.21759	271.38721	-1088.20691	-771.51672	63.66587	-1054.14917	-811.32318	29.18602	-1059.22046	-618.38330	29.87438	-858.78717	-793.48541	637.78748	-874.31555	-766.71234	459.32224	-869.79950	-909.33282	333.02731	-909.46661	-1069.32983	187.04242	-964.39166	-1119.39941	195.50336	-925.49670	-1010.12567	54.87897																																				 
41	0.400	-1090.61206	-686.56006	1626.11572	-958.99426	-708.56879	1634.40674	-1104.13757	-805.70239	1564.29492	-974.07898	-823.10822	1572.42517	-1038.88831	-831.86719	1418.99255	-1039.39246	-874.59167	1109.47058	-1026.30237	-711.92346	1339.67749	-1025.13782	-673.13422	1172.87537	-942.10791	-895.24646	1248.26208	-1185.81116	-739.90167	1373.08911	-1255.65442	-751.03101	1174.69263	-1267.43933	-750.20105	1051.36780	-1262.87732	-730.86890	921.98529	-1229.94055	-724.06976	802.97620	-1283.83606	-737.96869	809.26025	-1270.67773	-732.00641	724.86426	-870.74829	-764.01581	1366.60815	-797.73035	-755.56921	1143.64893	-783.96985	-736.08075	1032.38794	-777.71179	-720.87915	896.08801	-810.30640	-694.17169	798.03076	-764.25360	-722.32935	796.16638	-774.58075	-706.32770	722.06689	-1141.10254	-706.20203	939.58972	-905.50452	-732.56207	933.83154	-1109.52673	-871.91760	972.32660	-960.49207	-885.76801	972.84399	-1182.19653	-749.50311	640.53760	-1134.33301	-733.29401	464.31262	-1134.53162	-769.11230	271.54797	-1088.23743	-771.46283	63.79277	-1054.14709	-811.35095	29.23341	-1059.14941	-618.36554	29.80299	-859.69391	-781.99475	638.35803	-874.76965	-752.30640	460.68155	-870.80646	-893.85535	333.52243	-910.75323	-1052.90161	186.68982	-965.86224	-1103.21313	193.61559	-924.72998	-990.62366	56.04623																																				 
